<svg viewBox="-95.48640174201239 -35.06944444444445 206.6502162677164 79.85119047619048"
  style="width: 340px; height: 131.379px; max-height: 100%;" xmlns="http://www.w3.org/2000/svg"
  xmlns:xlink="http://www.w3.org/1999/xlink" version="1.1">
  <g transform="translate(-0.3968253968253968 -0.49603174603175404) scale(0.6889329805996471)"
    fill="#C5BFEB">
    <g>
      <path
        d="M15.048-46.800L1.584-46.800C0.912-46.800 0.576-46.416 0.576-45.648C0.576-44.352 0.768-43.032 1.152-41.688C2.016-41.928 3.312-42.048 5.040-42.048L7.200-42.048L7.200-0.864C7.200-0.048 7.584 0.360 8.352 0.360C9.936 0.360 11.544 0.240 13.176 0L12.888-6.768L12.888-42.048L18.504-42.048C19.176-42.048 19.512-42.432 19.512-43.200C19.512-44.496 19.320-45.816 18.936-47.160C18.072-46.920 16.776-46.800 15.048-46.800Z"></path>
      <path
        d="M27.288-13.176L30.744-15.480L30.744-6.768C29.880-5.040 28.692-4.176 27.180-4.176C25.668-4.176 24.912-5.412 24.912-7.884C24.912-10.356 25.704-12.120 27.288-13.176ZM28.080-36.000C25.584-36.000 23.580-35.460 22.068-34.380C20.556-33.300 19.800-31.800 19.800-29.880L19.800-23.976C19.800-23.160 20.376-22.608 21.528-22.320C22.104-22.128 22.716-22.032 23.364-22.032C24.012-22.032 24.648-22.104 25.272-22.248L25.056-25.632L25.056-28.008C25.056-30.264 26.004-31.392 27.900-31.392C29.796-31.392 30.744-30.384 30.744-28.368L30.744-20.592L24.192-16.704C20.880-14.688 19.224-11.712 19.224-7.776C19.224-5.184 19.824-3.120 21.024-1.584C22.224-0.048 23.832 0.720 25.848 0.720C27.864 0.720 29.616-0.024 31.104-1.512C31.536-0.024 32.760 0.720 34.776 0.720C36.072 0.720 37.068 0.384 37.764-0.288C38.460-0.960 38.784-1.920 38.736-3.168C37.728-3.168 37.044-3.384 36.684-3.816C36.324-4.248 36.144-4.968 36.144-5.976L36.144-28.872C36.144-33.624 33.456-36.000 28.080-36.000Z"></path>
      <path
        d="M46.080-7.128L46.080-8.496C46.080-9.696 46.152-10.824 46.296-11.880C45.672-12.024 45.036-12.096 44.388-12.096C43.740-12.096 43.128-12.000 42.552-11.808C41.400-11.520 40.824-10.968 40.824-10.152L40.824-5.400C40.824-3.432 41.568-1.920 43.056-0.864C44.544 0.192 46.608 0.720 49.248 0.720C51.888 0.720 53.892 0.060 55.260-1.260C56.628-2.580 57.312-4.392 57.312-6.696L57.312-12.096C57.312-14.880 56.280-16.848 54.216-18.000L47.880-21.672C46.824-22.248 46.296-23.376 46.296-25.056L46.296-28.368C46.296-30.384 47.256-31.392 49.176-31.392C51.000-31.392 51.912-30.264 51.912-28.008L51.912-26.928C51.912-25.728 51.840-24.600 51.696-23.544C52.320-23.400 52.956-23.328 53.604-23.328C54.252-23.328 54.864-23.424 55.440-23.616C56.592-23.904 57.168-24.456 57.168-25.272L57.168-29.808C57.168-31.728 56.472-33.240 55.080-34.344C53.688-35.448 51.660-36.000 48.996-36.000C46.332-36.000 44.316-35.340 42.948-34.020C41.580-32.700 40.896-30.984 40.896-28.872L40.896-23.832C40.896-21.096 41.832-19.152 43.704-18.000L50.040-14.184C51.288-13.416 51.912-12.144 51.912-10.368L51.912-7.416C51.912-5.064 50.940-3.888 48.996-3.888C47.052-3.888 46.080-4.968 46.080-7.128Z"></path>
      <path
        d="M72.648-29.376L72.648-21.024C72.648-20.208 72.372-19.524 71.820-18.972C71.268-18.420 70.632-18.144 69.912-18.144L67.104-18.144L67.104-49.104C67.104-49.824 66.624-50.184 65.664-50.184C64.032-50.184 62.496-49.800 61.056-49.032C61.488-47.544 61.704-46.080 61.704-44.640L61.704-0.792C61.704-0.072 62.112 0.288 62.928 0.288C64.608 0.288 66.168 0.144 67.608-0.144C67.272-1.680 67.104-3.600 67.104-5.904L67.104-13.824L69.768-13.824C70.584-13.824 71.268-13.560 71.820-13.032C72.372-12.504 72.648-11.808 72.648-10.944L72.648-4.248C72.648-2.472 72.948-1.200 73.548-0.432C74.148 0.336 75.120 0.720 76.464 0.720C77.808 0.720 78.852 0.372 79.596-0.324C80.340-1.020 80.688-1.968 80.640-3.168C79.632-3.168 78.948-3.384 78.588-3.816C78.228-4.248 78.048-4.968 78.048-5.976L78.048-10.872C78.048-13.176 77.328-14.928 75.888-16.128C77.328-17.424 78.048-19.176 78.048-21.384L78.048-34.488C78.048-35.208 77.640-35.568 76.824-35.568C75.144-35.568 73.584-35.472 72.144-35.280C72.480-33.168 72.648-31.200 72.648-29.376Z"></path>
    </g>
  </g>
  <g transform="translate(-0.24491563302616928 37.2420634920635) scale(0.6889329805996474)"
    fill="#C5BFEB">
    <g>
      <path
        d="M12.600-42.048C14.472-42.048 15.408-41.136 15.408-39.312L15.408-0.864C15.408-0.048 15.792 0.360 16.560 0.360C18.144 0.360 19.752 0.240 21.384 0L21.096-6.768L21.096-40.248C22.104-41.448 23.352-42.048 24.840-42.048C26.712-42.048 27.648-41.136 27.648-39.312L27.648-4.248C27.648-0.936 28.920 0.720 31.464 0.720C34.536 0.720 36.072-0.648 36.072-3.384C35.064-3.384 34.356-3.588 33.948-3.996C33.540-4.404 33.336-5.112 33.336-6.120L33.336-39.744C33.336-44.448 30.960-46.800 26.208-46.800C24.048-46.800 21.984-45.888 20.016-44.064C18.912-45.888 16.896-46.800 13.968-46.800C12.000-46.800 10.080-46.008 8.208-44.424C7.536-46.008 6.408-46.800 4.824-46.800C3.240-46.800 2.088-46.440 1.368-45.720C0.648-45.000 0.312-44.016 0.360-42.768C1.368-42.768 2.064-42.540 2.448-42.084C2.832-41.628 3.024-40.872 3.024-39.816L3.024-0.864C3.024-0.048 3.408 0.360 4.176 0.360C5.760 0.360 7.368 0.240 9.000 0L8.712-6.768L8.712-40.104C10.008-41.400 11.304-42.048 12.600-42.048Z"></path>
      <path
        d="M45.864-13.176L49.320-15.480L49.320-6.768C48.456-5.040 47.268-4.176 45.756-4.176C44.244-4.176 43.488-5.412 43.488-7.884C43.488-10.356 44.280-12.120 45.864-13.176ZM46.656-36.000C44.160-36.000 42.156-35.460 40.644-34.380C39.132-33.300 38.376-31.800 38.376-29.880L38.376-23.976C38.376-23.160 38.952-22.608 40.104-22.320C40.680-22.128 41.292-22.032 41.940-22.032C42.588-22.032 43.224-22.104 43.848-22.248L43.632-25.632L43.632-28.008C43.632-30.264 44.580-31.392 46.476-31.392C48.372-31.392 49.320-30.384 49.320-28.368L49.320-20.592L42.768-16.704C39.456-14.688 37.800-11.712 37.800-7.776C37.800-5.184 38.400-3.120 39.600-1.584C40.800-0.048 42.408 0.720 44.424 0.720C46.440 0.720 48.192-0.024 49.680-1.512C50.112-0.024 51.336 0.720 53.352 0.720C54.648 0.720 55.644 0.384 56.340-0.288C57.036-0.960 57.360-1.920 57.312-3.168C56.304-3.168 55.620-3.384 55.260-3.816C54.900-4.248 54.720-4.968 54.720-5.976L54.720-28.872C54.720-33.624 52.032-36.000 46.656-36.000Z"></path>
      <path
        d="M66.168-5.904L66.168-28.800C66.888-30.288 67.920-31.032 69.264-31.032C70.896-31.032 71.712-30.240 71.712-28.656L71.712-4.536C71.712-2.664 72.036-1.320 72.684-0.504C73.332 0.312 74.328 0.720 75.672 0.720C77.016 0.720 78.036 0.384 78.732-0.288C79.428-0.960 79.752-1.920 79.704-3.168C78.696-3.168 78.012-3.384 77.652-3.816C77.292-4.248 77.112-4.968 77.112-5.976L77.112-29.088C77.112-31.296 76.548-33.000 75.420-34.200C74.292-35.400 72.804-36.000 70.956-36.000C69.108-36.000 67.392-35.256 65.808-33.768C65.136-35.256 64.032-36.000 62.496-36.000C60.960-36.000 59.844-35.664 59.148-34.992C58.452-34.320 58.128-33.360 58.176-32.112C59.184-32.112 59.868-31.896 60.228-31.464C60.588-31.032 60.768-30.312 60.768-29.304L60.768-0.792C60.768-0.072 61.176 0.288 61.992 0.288C63.672 0.288 65.232 0.192 66.672 0C66.336-1.584 66.168-3.552 66.168-5.904Z"></path>
      <path
        d="M89.640-13.176L93.096-15.480L93.096-6.768C92.232-5.040 91.044-4.176 89.532-4.176C88.020-4.176 87.264-5.412 87.264-7.884C87.264-10.356 88.056-12.120 89.640-13.176ZM90.432-36.000C87.936-36.000 85.932-35.460 84.420-34.380C82.908-33.300 82.152-31.800 82.152-29.880L82.152-23.976C82.152-23.160 82.728-22.608 83.880-22.320C84.456-22.128 85.068-22.032 85.716-22.032C86.364-22.032 87.000-22.104 87.624-22.248L87.408-25.632L87.408-28.008C87.408-30.264 88.356-31.392 90.252-31.392C92.148-31.392 93.096-30.384 93.096-28.368L93.096-20.592L86.544-16.704C83.232-14.688 81.576-11.712 81.576-7.776C81.576-5.184 82.176-3.120 83.376-1.584C84.576-0.048 86.184 0.720 88.200 0.720C90.216 0.720 91.968-0.024 93.456-1.512C93.888-0.024 95.112 0.720 97.128 0.720C98.424 0.720 99.420 0.384 100.116-0.288C100.812-0.960 101.136-1.920 101.088-3.168C100.080-3.168 99.396-3.384 99.036-3.816C98.676-4.248 98.496-4.968 98.496-5.976L98.496-28.872C98.496-33.624 95.808-36.000 90.432-36.000Z"></path>
      <path
        d="M112.176-4.824L112.176-8.208C114.480-8.352 116.316-9.084 117.684-10.404C119.052-11.724 119.736-13.536 119.736-15.840L119.736-35.568L115.344-35.280L111.672-35.280C109.128-35.280 107.112-34.608 105.624-33.264C104.136-31.920 103.392-30.048 103.392-27.648L103.392-15.552C103.392-12.480 104.520-10.344 106.776-9.144L106.776-4.104C104.232-2.952 102.960-0.624 102.960 2.880C102.960 5.424 103.584 7.404 104.832 8.820C106.080 10.236 107.904 10.944 110.304 10.944L113.904 10.944C118.608 10.944 120.960 8.352 120.960 3.168C120.960 0.624 120.336-1.344 119.088-2.736C117.840-4.128 116.016-4.824 113.616-4.824ZM108.792-27.936C108.792-28.752 109.044-29.412 109.548-29.916C110.052-30.420 110.712-30.672 111.528-30.672L114.336-30.672L114.336-15.552C114.336-14.736 114.072-14.052 113.544-13.500C113.016-12.948 112.356-12.672 111.564-12.672C110.772-12.672 110.112-12.948 109.584-13.500C109.056-14.052 108.792-14.736 108.792-15.552ZM113.832-0.288C115.128-0.288 115.776 0.828 115.776 3.060C115.776 5.292 115.128 6.408 113.832 6.408L110.088 6.408C108.792 6.408 108.144 5.292 108.144 3.060C108.144 0.828 108.792-0.288 110.088-0.288Z"></path>
      <path
        d="M135.432-28.296C135.432-24.840 134.688-22.560 133.200-21.456L129.744-18.864L129.744-29.160C129.744-30.648 130.632-31.392 132.408-31.392C133.272-31.392 133.992-31.116 134.568-30.564C135.144-30.012 135.432-29.256 135.432-28.296ZM124.344-6.408C124.344-1.656 127.032 0.720 132.408 0.720C134.904 0.720 136.908 0.180 138.420-0.900C139.932-1.980 140.688-3.480 140.688-5.400L140.688-10.584C140.688-11.400 140.112-11.952 138.960-12.240C138.384-12.432 137.772-12.528 137.124-12.528C136.476-12.528 135.840-12.456 135.216-12.312L135.432-8.928L135.432-7.272C135.432-5.016 134.484-3.888 132.588-3.888C130.692-3.888 129.744-4.896 129.744-6.912L129.744-13.464L136.656-18.216C138.000-19.128 139.056-20.472 139.824-22.248C140.592-24.024 140.976-25.968 140.976-28.080C140.976-33.360 138.204-36.000 132.660-36.000C127.116-36.000 124.344-33.648 124.344-28.944Z"></path>
      <path
        d="M151.128-5.904L151.128-27.792C151.416-28.560 151.848-29.256 152.424-29.880C153-30.504 153.624-30.816 154.296-30.816C155.736-30.816 156.456-30.024 156.456-28.440L156.456-24.768C156.456-23.568 156.384-22.440 156.240-21.384C156.864-21.240 157.500-21.168 158.148-21.168C158.796-21.168 159.408-21.264 159.984-21.456C161.136-21.744 161.712-22.296 161.712-23.112L161.712-30.312C161.712-34.104 159.744-36.000 155.808-36.000C153.600-36.000 151.896-35.040 150.696-33.120C150.216-35.040 149.016-36.000 147.096-36.000C145.800-36.000 144.804-35.664 144.108-34.992C143.412-34.320 143.088-33.360 143.136-32.112C144.144-32.112 144.828-31.896 145.188-31.464C145.548-31.032 145.728-30.312 145.728-29.304L145.728-0.792C145.728-0.072 146.136 0.288 146.952 0.288C148.632 0.288 150.192 0.144 151.632-0.144C151.296-1.680 151.128-3.600 151.128-5.904Z"></path>
    </g>
  </g>
  <g transform="translate(-102.17310198560303 -39.573748202363376) scale(0.8885979714459528)">
    <g fill="#C5BFEB">
      <path
        d="M92.475 18.308l-2.869-8.676-6.407-4.563-12.279 7.886-.049-.079-7.224-3.309L50 7.024v1.697l12.875 2.869 6.578 3.358L83.78 37.895l4.654 12.83-5.34 19.302-15.053 8.891-4.454 1.558 3.281-8.75v-5.929l5.873.095 4.407-4.06.278-8.71-2.868-2.835-6.087-8.327-6.795 2.514-1.092.539-.709 9.33-4.193-1.569L50 52.335h-.004l-5.296.471-4.577 1.558-.71-9.352-1.092-.539-6.795-2.514-6.088 8.327-2.868 2.835.28 8.71 4.409 4.06 5.871-.095v5.929l3.282 8.75-4.453-1.558-15.054-8.891-5.34-19.302 4.655-12.83 14.327-22.945 6.577-3.358L50 8.722V7.024L36.352 9.567l-7.226 3.309-.048.079-11.489-7.886-7.196 4.563-2.868 8.676 1.4 9.867 5.802 8.484-5.278 13.522L14.243 71.7l35.664 23.112v.119L50 94.87l.092.061v-.119L85.757 71.7l4.793-21.519-5.279-13.521 5.804-8.484 1.4-9.868zM50 86.662l-5.942-1.35-5.723-5.983 3.933 1.816 5.36-.243L50 79.499v-8.814l-5.263.033-2.855.647-2.518-2.31 2.518 5.354 7.515 1.466v1.997l-7.165 1.768-4.131-.558-.061-.063-3.086-7.602-.21-5.197 5.162-10.24 4.756-2.347 5.337-.769.001-.062v.064l5.724.735 4.368 2.38 5.162 10.24-.21 5.197-3.086 7.602-.061.063-4.131.558-7.164-1.768v-1.997l7.514-1.466 2.52-5.354-2.52 2.31-2.854-.647L50 70.686V79.5l2.37 1.403 5.361.243 3.932-1.816-5.722 5.983L50 86.662z"></path>
    </g>
  </g>
</svg>